<svg id="Vrstva_1" data-name="Vrstva 1" xmlns="http://www.w3.org/2000/svg" viewBox="0 0 82.86 41.73"><defs><style>.cls-1{fill:#745f37;}</style></defs><path class="cls-1" d="M30.78,36.85H19.92L8.57,63.11h8.57l1.66-3.84H31.9l1.65,3.84h8.58Zm-9.46,16.6,4-9.33,4,9.33Z" transform="translate(-8.57 -29.13)"/><polygon class="cls-1" points="30.95 23.47 30.95 0 39.52 0 39.52 13.3 30.95 23.47"/><polygon class="cls-1" points="64.19 41.73 53.14 41.73 47.98 35.6 41.01 27.3 35.38 33.99 33.35 33.99 28.61 30 35.94 21.28 37.97 18.88 47.37 7.69 57.5 7.69 46.53 20.73 64.19 41.73"/><polygon class="cls-1" points="67.32 26.15 81.05 26.15 81.05 34.08 60.91 34.08 54.17 26.15 63.06 15.58 54 15.58 60.66 7.65 80.96 7.65 80.96 7.67 82.86 7.67 67.32 26.15"/></svg>