<svg xmlns="http://www.w3.org/2000/svg" width="27.585" height="27.634" viewBox="0 0 27.585 27.634">
  <path id="Icon_feather-phone-call" data-name="Icon feather-phone-call" d="M18.949,6.379A6.1,6.1,0,0,1,23.767,11.2M18.949,1.5a10.978,10.978,0,0,1,9.7,9.685m-1.22,9.734v3.659a2.44,2.44,0,0,1-2.659,2.44,24.139,24.139,0,0,1-10.527-3.745,23.786,23.786,0,0,1-7.319-7.319A24.139,24.139,0,0,1,3.178,5.379,2.44,2.44,0,0,1,5.605,2.72H9.264a2.44,2.44,0,0,1,2.44,2.1,15.662,15.662,0,0,0,.854,3.428,2.44,2.44,0,0,1-.549,2.574L10.46,12.368a19.516,19.516,0,0,0,7.319,7.319l1.549-1.549a2.44,2.44,0,0,1,2.574-.549,15.662,15.662,0,0,0,3.428.854A2.44,2.44,0,0,1,27.427,20.919Z" transform="translate(-2.167 -0.396)" fill="none" stroke="#c69d36" stroke-linecap="round" stroke-linejoin="round" stroke-width="2"/>
</svg>
