<svg xmlns="http://www.w3.org/2000/svg" viewBox="0 0 489.48 161.92"><defs><style>.cls-1,.cls-2{fill:#f2f2f2;}.cls-2{font-size:30.39px;font-family:Lato-Heavy, Lato;font-weight:800;letter-spacing:0.04em;}.cls-3{letter-spacing:0.05em;}.cls-4{letter-spacing:0.03em;}.cls-5{letter-spacing:0.05em;}.cls-6{letter-spacing:0.04em;}.cls-7{letter-spacing:0.05em;}.cls-8{letter-spacing:0.04em;}.cls-9{letter-spacing:0.03em;}.cls-10{font-size:63px;letter-spacing:0.06em;}.cls-11{letter-spacing:0.07em;}.cls-12{letter-spacing:0.05em;}.cls-13{letter-spacing:0.06em;}.cls-14{letter-spacing:0.04em;}.cls-15{fill:#ce9c04;}</style></defs><g id="Vrstva_2" data-name="Vrstva 2"><g id="Vrstva_1-2" data-name="Vrstva 1"><path class="cls-1" d="M44.07,54.86H22.52L0,107H17l3.29-7.61h26L49.57,107h17ZM25.3,87.79l8-18.5,8,18.5Z"/><polygon class="cls-1" points="61.4 86.13 61.4 39.56 78.41 39.56 78.41 65.94 61.4 86.13"/><polygon class="cls-1" points="127.34 122.35 105.43 122.35 95.19 110.18 81.35 93.72 70.19 106.99 66.17 106.99 56.76 99.07 71.3 81.78 75.32 77.01 93.98 54.82 114.07 54.82 92.31 80.69 127.34 122.35"/><polygon class="cls-1" points="133.56 91.43 160.8 91.43 160.8 107.16 120.84 107.16 107.47 91.43 125.1 70.47 107.13 70.46 120.35 54.74 160.61 54.74 160.61 54.78 164.39 54.78 133.56 91.43"/><text class="cls-2" transform="translate(194.93 56.88)">A<tspan class="cls-3" x="22.41" y="0">d</tspan><tspan class="cls-4" x="41.16" y="0">v</tspan><tspan class="cls-5" x="58.26" y="0">ok</tspan><tspan class="cls-6" x="95.18" y="0">á</tspan><tspan class="cls-7" x="111.91" y="0">tní kan</tspan><tspan class="cls-8" x="214.9" y="0">c</tspan><tspan class="cls-7" x="230.73" y="0">elá</tspan><tspan class="cls-9" x="274.49" y="0">ř</tspan><tspan class="cls-10"><tspan x="0" y="56">Z</tspan><tspan class="cls-11" x="41.9" y="56">rn</tspan><tspan class="cls-12" x="110.19" y="56">o</tspan><tspan class="cls-13" x="149.94" y="56">v</tspan><tspan class="cls-11" x="187.14" y="56">sk</tspan><tspan class="cls-14" x="258.2" y="56">ý</tspan></tspan></text><rect class="cls-15" x="172.92" width="7.36" height="161.92"/></g></g></svg>