<svg xmlns="http://www.w3.org/2000/svg" viewBox="0 0 509.59 161.92"><defs><style>.cls-1{fill:#f2f2f2;}.cls-2{fill:#ce9c04;}</style></defs><g id="Vrstva_2" data-name="Vrstva 2"><g id="Vrstva_1-2" data-name="Vrstva 1"><path class="cls-1" d="M44.07,54.86H22.52L0,107H17l3.29-7.61h26L49.57,107h17ZM25.3,87.79l8-18.5,8,18.5Z"/><polygon class="cls-1" points="61.4 86.13 61.4 39.56 78.41 39.56 78.41 65.94 61.4 86.13"/><polygon class="cls-1" points="127.34 122.35 105.43 122.35 95.19 110.18 81.35 93.72 70.19 106.99 66.17 106.99 56.76 99.07 71.3 81.78 75.32 77.01 93.98 54.82 114.07 54.82 92.31 80.69 127.34 122.35"/><polygon class="cls-1" points="133.56 91.43 160.8 91.43 160.8 107.16 120.84 107.16 107.47 91.43 125.1 70.47 107.13 70.46 120.35 54.74 160.61 54.74 160.61 54.78 164.39 54.78 133.56 91.43"/><path class="cls-1" d="M213.35,76.25h-4a1.75,1.75,0,0,1-1.08-.31,1.92,1.92,0,0,1-.62-.81L206,70.42H196.2l-1.67,4.71a1.92,1.92,0,0,1-.59.77,1.6,1.6,0,0,1-1.07.35h-4l9.64-24.66h5.22Zm-8.57-9.37-2.67-7.54c-.15-.4-.32-.86-.5-1.4s-.34-1.11-.5-1.73c-.16.63-.32,1.22-.5,1.76s-.34,1-.5,1.4l-2.65,7.51Z"/><path class="cls-1" d="M231.71,50.9V76.25h-2.89a1.09,1.09,0,0,1-1.15-.81l-.4-1.53a11,11,0,0,1-1.11,1,6.73,6.73,0,0,1-1.27.82,5.93,5.93,0,0,1-1.46.54,7.56,7.56,0,0,1-1.7.19,5.57,5.57,0,0,1-2.58-.6,5.78,5.78,0,0,1-2-1.74,8.53,8.53,0,0,1-1.34-2.81,13.8,13.8,0,0,1-.47-3.81,11.82,11.82,0,0,1,.53-3.64A9.14,9.14,0,0,1,217.36,61a7.26,7.26,0,0,1,2.38-1.92,6.89,6.89,0,0,1,3.1-.7,6.06,6.06,0,0,1,2.4.43A6.28,6.28,0,0,1,227,60V50.9ZM227,63.28a3.66,3.66,0,0,0-1.44-1.07,4.47,4.47,0,0,0-1.64-.31,3.54,3.54,0,0,0-1.54.33,3,3,0,0,0-1.2,1,4.93,4.93,0,0,0-.78,1.76,10.49,10.49,0,0,0-.27,2.55,11.76,11.76,0,0,0,.22,2.48,4.86,4.86,0,0,0,.64,1.65,2.5,2.5,0,0,0,1,.91,3,3,0,0,0,1.33.28,4.13,4.13,0,0,0,2.08-.49A6.21,6.21,0,0,0,227,71Z"/><path class="cls-1" d="M253.3,58.73l-6.88,17.52h-4.25l-6.89-17.52h3.89A1.42,1.42,0,0,1,240,59a1.27,1.27,0,0,1,.48.62l2.94,8.67c.19.58.36,1.16.51,1.72s.28,1.13.39,1.69c.13-.56.27-1.13.42-1.69s.33-1.14.54-1.72l3-8.67a1.17,1.17,0,0,1,.46-.62,1.32,1.32,0,0,1,.8-.23Z"/><path class="cls-1" d="M264.2,58.45a9.84,9.84,0,0,1,3.59.63,7.73,7.73,0,0,1,4.55,4.63,10.53,10.53,0,0,1,.63,3.75,10.65,10.65,0,0,1-.63,3.77,8.15,8.15,0,0,1-1.78,2.85,7.9,7.9,0,0,1-2.77,1.8,10.6,10.6,0,0,1-7.2,0,7.77,7.77,0,0,1-2.78-1.8,8.35,8.35,0,0,1-1.8-2.85,10.65,10.65,0,0,1-.63-3.77,10.53,10.53,0,0,1,.63-3.75,8.07,8.07,0,0,1,1.8-2.83,7.77,7.77,0,0,1,2.78-1.8A9.87,9.87,0,0,1,264.2,58.45Zm0,14.54a3.35,3.35,0,0,0,3-1.39,7.16,7.16,0,0,0,1-4.12,7.17,7.17,0,0,0-1-4.11,3.37,3.37,0,0,0-3-1.38,3.46,3.46,0,0,0-3,1.38,7.25,7.25,0,0,0-1,4.11,7.24,7.24,0,0,0,1,4.12A3.44,3.44,0,0,0,264.2,73Z"/><path class="cls-1" d="M282.18,50.9V65.29H283a1.63,1.63,0,0,0,.69-.13,1.56,1.56,0,0,0,.51-.47l3.88-5.17a2.12,2.12,0,0,1,.65-.59,1.88,1.88,0,0,1,.93-.2h4.28l-5,6.39a4.67,4.67,0,0,1-1.37,1.26,3.31,3.31,0,0,1,.67.62,8.66,8.66,0,0,1,.57.8l5.42,8.45H290a2.2,2.2,0,0,1-.93-.18,1.46,1.46,0,0,1-.65-.63L284.43,69a1.25,1.25,0,0,0-.5-.52,1.85,1.85,0,0,0-.76-.12h-1v7.9h-4.69V50.9Z"/><path class="cls-1" d="M297.21,61.16a10.48,10.48,0,0,1,3.42-2.09,11.6,11.6,0,0,1,4.05-.69,7.23,7.23,0,0,1,2.79.52,6,6,0,0,1,2.09,1.41,6.2,6.2,0,0,1,1.32,2.17,7.91,7.91,0,0,1,.46,2.76v11H309.2a2.25,2.25,0,0,1-1-.18,1.35,1.35,0,0,1-.57-.79l-.38-1.12a15,15,0,0,1-1.28,1,7.19,7.19,0,0,1-1.28.74,6.72,6.72,0,0,1-1.42.45,8.81,8.81,0,0,1-1.7.15,6.92,6.92,0,0,1-2.1-.3,4.58,4.58,0,0,1-1.64-.91,4,4,0,0,1-1.07-1.51,5.35,5.35,0,0,1-.37-2.07,4.23,4.23,0,0,1,.49-1.94A4.83,4.83,0,0,1,298.56,68a11.1,11.1,0,0,1,3.2-1.31,22.4,22.4,0,0,1,5-.58v-.9a3.6,3.6,0,0,0-.7-2.43,2.58,2.58,0,0,0-2-.77,5,5,0,0,0-1.61.23,8.13,8.13,0,0,0-1.13.49l-.91.5a2.07,2.07,0,0,1-1,.23,1.35,1.35,0,0,1-.82-.25,2.2,2.2,0,0,1-.55-.59Zm9.56,7.76a22.72,22.72,0,0,0-2.86.3,6.69,6.69,0,0,0-1.81.56,2.31,2.31,0,0,0-1,.77,1.67,1.67,0,0,0-.28.94,1.71,1.71,0,0,0,.57,1.45,2.64,2.64,0,0,0,1.59.42,4.71,4.71,0,0,0,2-.41,6.46,6.46,0,0,0,1.71-1.3Zm3.75-17.61-4.3,4.46a2.09,2.09,0,0,1-.67.5,2.31,2.31,0,0,1-.86.14h-2.82l2.38-4.14a1.93,1.93,0,0,1,.62-.72,2.06,2.06,0,0,1,1.11-.24Z"/><path class="cls-1" d="M322.37,76.52a6,6,0,0,1-2.11-.34,4.32,4.32,0,0,1-1.54-1,4.27,4.27,0,0,1-1-1.56,6.4,6.4,0,0,1-.32-2.08V62.09h-1.65a.88.88,0,0,1-.9-1V59.3l2.81-.51.95-4.54a.94.94,0,0,1,1-.76h2.44v5.34h4.53v3.26h-4.53v9.15a1.77,1.77,0,0,0,.35,1.15,1.22,1.22,0,0,0,1,.43,2,2,0,0,0,.58-.08,2.53,2.53,0,0,0,.4-.17l.32-.17a.6.6,0,0,1,.3-.07.64.64,0,0,1,.34.09,1.07,1.07,0,0,1,.27.31L327.1,75a7,7,0,0,1-2.19,1.15A8.37,8.37,0,0,1,322.37,76.52Z"/><path class="cls-1" d="M335.07,60.77a9.61,9.61,0,0,1,1.1-.94,7,7,0,0,1,2.58-1.21,7.43,7.43,0,0,1,1.61-.17,6.14,6.14,0,0,1,2.53.5,5.12,5.12,0,0,1,1.86,1.37,5.73,5.73,0,0,1,1.14,2.11,8.83,8.83,0,0,1,.38,2.69V76.25H341.6V65.12a3.44,3.44,0,0,0-.68-2.27,2.47,2.47,0,0,0-2-.81,4.09,4.09,0,0,0-1.85.43,6.45,6.45,0,0,0-1.65,1.18v12.6h-4.69V58.73h2.89a1.13,1.13,0,0,1,1.17.81Z"/><path class="cls-1" d="M356.41,58.73V76.25h-4.7V58.73Zm4.06-7.42-4.3,4.46a2.2,2.2,0,0,1-.67.5,2.34,2.34,0,0,1-.86.14h-2.82l2.38-4.14a1.85,1.85,0,0,1,.62-.72,2,2,0,0,1,1.11-.24Z"/><path class="cls-1" d="M376.31,50.9V65.29h.78a1.65,1.65,0,0,0,.7-.13,1.56,1.56,0,0,0,.51-.47l3.88-5.17a2.12,2.12,0,0,1,.65-.59,1.83,1.83,0,0,1,.93-.2H388l-5,6.39a4.83,4.83,0,0,1-1.38,1.26,3.37,3.37,0,0,1,.68.62,8.62,8.62,0,0,1,.56.8l5.43,8.45h-4.22a2.28,2.28,0,0,1-.94-.18,1.44,1.44,0,0,1-.64-.63L378.56,69a1.25,1.25,0,0,0-.5-.52,1.85,1.85,0,0,0-.76-.12h-1v7.9h-4.69V50.9Z"/><path class="cls-1" d="M391.34,61.16a10.48,10.48,0,0,1,3.42-2.09,11.54,11.54,0,0,1,4-.69,7.24,7.24,0,0,1,2.8.52,6,6,0,0,1,2.09,1.41A6.36,6.36,0,0,1,405,62.48a8.15,8.15,0,0,1,.46,2.76v11h-2.15a2.28,2.28,0,0,1-1-.18,1.44,1.44,0,0,1-.57-.79l-.37-1.12a15,15,0,0,1-1.28,1,7.64,7.64,0,0,1-1.29.74,6.37,6.37,0,0,1-1.42.45,8.71,8.71,0,0,1-1.69.15,7,7,0,0,1-2.11-.3,4.76,4.76,0,0,1-1.64-.91,4,4,0,0,1-1.06-1.51,5.35,5.35,0,0,1-.37-2.07,4.23,4.23,0,0,1,.49-1.94A4.83,4.83,0,0,1,392.69,68a11.1,11.1,0,0,1,3.2-1.31,22.38,22.38,0,0,1,5-.58v-.9a3.6,3.6,0,0,0-.69-2.43,2.6,2.6,0,0,0-2-.77,4.9,4.9,0,0,0-1.61.23,8.29,8.29,0,0,0-1.14.49l-.9.5a2.13,2.13,0,0,1-1,.23,1.41,1.41,0,0,1-.83-.25,2.37,2.37,0,0,1-.55-.59Zm9.55,7.76a22.75,22.75,0,0,0-2.85.3,6.58,6.58,0,0,0-1.81.56,2.34,2.34,0,0,0-1,.77,1.75,1.75,0,0,0-.28.94,1.71,1.71,0,0,0,.57,1.45,2.64,2.64,0,0,0,1.59.42,4.71,4.71,0,0,0,2-.41,6.16,6.16,0,0,0,1.71-1.3Z"/><path class="cls-1" d="M415.05,60.77a10.55,10.55,0,0,1,1.1-.94,7,7,0,0,1,2.58-1.21,7.43,7.43,0,0,1,1.61-.17,6.11,6.11,0,0,1,2.53.5,5.25,5.25,0,0,1,1.87,1.37,5.86,5.86,0,0,1,1.13,2.11,8.83,8.83,0,0,1,.39,2.69V76.25h-4.68V65.12a3.44,3.44,0,0,0-.68-2.27,2.46,2.46,0,0,0-2-.81,4.1,4.1,0,0,0-1.86.43,6.81,6.81,0,0,0-1.65,1.18v12.6H410.7V58.73h2.89a1.13,1.13,0,0,1,1.17.81Z"/><path class="cls-1" d="M444.26,62.63a1.64,1.64,0,0,1-.41.42,1,1,0,0,1-.58.15,1.23,1.23,0,0,1-.65-.2l-.72-.42a5.87,5.87,0,0,0-1-.43,4.35,4.35,0,0,0-1.4-.19,4,4,0,0,0-1.82.38,3.4,3.4,0,0,0-1.29,1.09,4.93,4.93,0,0,0-.75,1.74,9.45,9.45,0,0,0-.25,2.29,6.74,6.74,0,0,0,1.08,4.12A3.5,3.5,0,0,0,439.45,73a4.49,4.49,0,0,0,1.11-.12,3.43,3.43,0,0,0,.82-.28,2.91,2.91,0,0,0,.6-.37c.17-.14.33-.26.49-.37a2,2,0,0,1,.46-.28,1.06,1.06,0,0,1,.51-.11,1,1,0,0,1,.85.4l1.35,1.7A7.93,7.93,0,0,1,444,75a8.14,8.14,0,0,1-1.76.9,9.27,9.27,0,0,1-1.85.46,14.51,14.51,0,0,1-1.85.13,7.74,7.74,0,0,1-3.06-.61A7.14,7.14,0,0,1,433,74.14a8.44,8.44,0,0,1-1.73-2.83,11,11,0,0,1-.63-3.85,10.86,10.86,0,0,1,.56-3.57A7.91,7.91,0,0,1,432.84,61a7.5,7.5,0,0,1,2.69-1.9,9.34,9.34,0,0,1,3.71-.69,8.88,8.88,0,0,1,3.52.65A8.33,8.33,0,0,1,445.48,61Z"/><path class="cls-1" d="M453,68.21a5.52,5.52,0,0,0,1.4,3.61A4.31,4.31,0,0,0,457.49,73a5.23,5.23,0,0,0,1.67-.23,7.6,7.6,0,0,0,1.24-.51l1-.51a1.86,1.86,0,0,1,.86-.22,1,1,0,0,1,.85.4l1.36,1.7A7.42,7.42,0,0,1,462.79,75a8.69,8.69,0,0,1-1.87.9,10.51,10.51,0,0,1-2,.46,15.69,15.69,0,0,1-1.9.13,9.36,9.36,0,0,1-3.42-.61,7.75,7.75,0,0,1-2.78-1.78A8.65,8.65,0,0,1,449,71.19a11.31,11.31,0,0,1-.68-4.07,9.57,9.57,0,0,1,.59-3.36,7.87,7.87,0,0,1,4.38-4.62,8.81,8.81,0,0,1,3.57-.69A8.67,8.67,0,0,1,460,59a6.92,6.92,0,0,1,2.45,1.55,7.11,7.11,0,0,1,1.6,2.51,9.42,9.42,0,0,1,.56,3.39,5.36,5.36,0,0,1-.05.87,1.37,1.37,0,0,1-.17.54.58.58,0,0,1-.32.28,1.34,1.34,0,0,1-.53.08Zm7.38-2.79a4.92,4.92,0,0,0-.2-1.39,3.29,3.29,0,0,0-.62-1.17,3,3,0,0,0-1.07-.81,3.66,3.66,0,0,0-1.55-.3,3.56,3.56,0,0,0-2.63,1,4.79,4.79,0,0,0-1.24,2.72Z"/><path class="cls-1" d="M473.77,50.9V76.25h-4.69V50.9Z"/><path class="cls-1" d="M478.85,61.16a10.58,10.58,0,0,1,3.42-2.09,11.64,11.64,0,0,1,4.05-.69,7.23,7.23,0,0,1,2.79.52,6.07,6.07,0,0,1,2.1,1.41,6.18,6.18,0,0,1,1.31,2.17,7.91,7.91,0,0,1,.46,2.76v11h-2.14a2.25,2.25,0,0,1-1-.18,1.44,1.44,0,0,1-.57-.79l-.37-1.12q-.67.59-1.29,1a7.19,7.19,0,0,1-1.28.74,6.54,6.54,0,0,1-1.42.45,8.78,8.78,0,0,1-1.69.15,7,7,0,0,1-2.11-.3,4.67,4.67,0,0,1-1.64-.91,3.9,3.9,0,0,1-1.06-1.51,5.34,5.34,0,0,1-.38-2.07,4.36,4.36,0,0,1,.49-1.94,4.87,4.87,0,0,1,1.7-1.76,11,11,0,0,1,3.19-1.31,22.4,22.4,0,0,1,5-.58v-.9a3.54,3.54,0,0,0-.7-2.43,2.56,2.56,0,0,0-2-.77,5,5,0,0,0-1.62.23,8.13,8.13,0,0,0-1.13.49l-.91.5a2.07,2.07,0,0,1-1,.23,1.38,1.38,0,0,1-.82-.25,2.37,2.37,0,0,1-.55-.59Zm9.56,7.76a22.72,22.72,0,0,0-2.86.3,6.69,6.69,0,0,0-1.81.56,2.31,2.31,0,0,0-.95.77,1.67,1.67,0,0,0-.28.94,1.71,1.71,0,0,0,.57,1.45,2.64,2.64,0,0,0,1.59.42,4.71,4.71,0,0,0,2-.41,6.46,6.46,0,0,0,1.71-1.3Zm3.76-17.61-4.31,4.46a2.09,2.09,0,0,1-.67.5,2.25,2.25,0,0,1-.85.14h-2.83l2.38-4.14a1.93,1.93,0,0,1,.62-.72,2.09,2.09,0,0,1,1.12-.24Z"/><path class="cls-1" d="M509.59,51.59l-3.94,4.81h-4.39l-3.94-4.81h3.24a1.57,1.57,0,0,1,.54.09,1.22,1.22,0,0,1,.38.21l1.63,1.74a3.6,3.6,0,0,1,.41.45,2.54,2.54,0,0,1,.2-.24,2,2,0,0,1,.19-.21l1.63-1.74a2.11,2.11,0,0,1,.4-.2,1.34,1.34,0,0,1,.52-.1Zm-7,10a8.11,8.11,0,0,1,1.92-2.36,4,4,0,0,1,2.55-.87A3.11,3.11,0,0,1,509,59l-.3,3.46a.68.68,0,0,1-.75.6,6,6,0,0,1-.78-.08,6.58,6.58,0,0,0-1-.07,3.33,3.33,0,0,0-1.14.18,3,3,0,0,0-.9.53,3.84,3.84,0,0,0-.7.83,7.94,7.94,0,0,0-.59,1.13V76.25H498.2V58.73H501a1.46,1.46,0,0,1,1,.25,1.61,1.61,0,0,1,.39.88Z"/><path class="cls-1" d="M206.65,86.14a2.07,2.07,0,0,1-.11.69,2.24,2.24,0,0,1-.32.66l-10.74,15.24h10.87v3.52H189.7V104.5a2,2,0,0,1,.11-.63,2,2,0,0,1,.3-.56L200.88,88H190.47V84.49h16.18Z"/><path class="cls-1" d="M214.72,93.34a7,7,0,0,1,1.7-2.09,3.5,3.5,0,0,1,2.25-.76,2.77,2.77,0,0,1,1.71.49L220.11,94a.69.69,0,0,1-.23.41.71.71,0,0,1-.43.12,6.1,6.1,0,0,1-.69-.07,5.09,5.09,0,0,0-.84-.07,2.85,2.85,0,0,0-1,.17,2.49,2.49,0,0,0-.79.46,3.25,3.25,0,0,0-.62.74,6.54,6.54,0,0,0-.52,1v9.46h-4.14V90.79h2.44a1.28,1.28,0,0,1,.87.22,1.42,1.42,0,0,1,.35.78Z"/><path class="cls-1" d="M228.09,92.59a9.46,9.46,0,0,1,1-.83,6.36,6.36,0,0,1,1.06-.64,5.85,5.85,0,0,1,1.22-.42,6.22,6.22,0,0,1,1.41-.15A5.46,5.46,0,0,1,235,91a4.55,4.55,0,0,1,1.64,1.22,5.22,5.22,0,0,1,1,1.86,8.08,8.08,0,0,1,.33,2.37v9.82h-4.12V96.43a3.05,3.05,0,0,0-.6-2,2.2,2.2,0,0,0-1.77-.71,3.69,3.69,0,0,0-1.64.38,5.61,5.61,0,0,0-1.45,1v11.11h-4.14V90.79h2.55a1,1,0,0,1,1,.72Z"/><path class="cls-1" d="M250.33,90.55a8.68,8.68,0,0,1,3.17.55,7,7,0,0,1,2.44,1.58,7.07,7.07,0,0,1,1.58,2.5,10.3,10.3,0,0,1,0,6.64,7.11,7.11,0,0,1-1.58,2.51,6.88,6.88,0,0,1-2.44,1.59,8.68,8.68,0,0,1-3.17.56,8.79,8.79,0,0,1-3.19-.56,6.92,6.92,0,0,1-2.45-1.59,7.25,7.25,0,0,1-1.58-2.51,10.12,10.12,0,0,1,0-6.64,7.21,7.21,0,0,1,1.58-2.5,7,7,0,0,1,2.45-1.58A8.79,8.79,0,0,1,250.33,90.55Zm0,12.82a3,3,0,0,0,2.63-1.22,8.18,8.18,0,0,0,0-7.26,3,3,0,0,0-2.63-1.22,3,3,0,0,0-2.67,1.22,8.18,8.18,0,0,0,0,7.26A3,3,0,0,0,250.33,103.37Z"/><path class="cls-1" d="M276.52,90.79l-6.07,15.46H266.7l-6.08-15.46h3.44a1.28,1.28,0,0,1,.75.21,1.11,1.11,0,0,1,.42.54l2.59,7.65c.17.52.32,1,.45,1.52s.25,1,.35,1.49c.11-.5.23-1,.37-1.49s.29-1,.47-1.52l2.68-7.65a1,1,0,0,1,.41-.54,1.18,1.18,0,0,1,.7-.21Z"/><path class="cls-1" d="M289.62,94a1.19,1.19,0,0,1-.34.36.82.82,0,0,1-.47.12,1.45,1.45,0,0,1-.62-.15l-.7-.33a9,9,0,0,0-.89-.32,4.15,4.15,0,0,0-1.17-.15,2.61,2.61,0,0,0-1.56.41,1.3,1.3,0,0,0-.55,1.09,1.06,1.06,0,0,0,.31.78,2.84,2.84,0,0,0,.84.55,9.71,9.71,0,0,0,1.17.43l1.36.45a12.46,12.46,0,0,1,1.36.55,4.54,4.54,0,0,1,1.17.79,3.45,3.45,0,0,1,.84,1.14,3.73,3.73,0,0,1,.31,1.61,5.29,5.29,0,0,1-.41,2.08,4.64,4.64,0,0,1-1.21,1.64,5.7,5.7,0,0,1-2,1.08,8.73,8.73,0,0,1-2.73.39,9.16,9.16,0,0,1-1.57-.14,9.48,9.48,0,0,1-2.81-1,5.85,5.85,0,0,1-1.06-.75l1-1.55a1.18,1.18,0,0,1,.41-.42,1.21,1.21,0,0,1,.64-.15,1.28,1.28,0,0,1,.69.19l.7.4a6.15,6.15,0,0,0,.92.41,4.21,4.21,0,0,0,1.33.19,3.54,3.54,0,0,0,1-.14,1.86,1.86,0,0,0,.7-.37,1.52,1.52,0,0,0,.4-.52,1.63,1.63,0,0,0,.13-.61,1.13,1.13,0,0,0-.32-.83,2.85,2.85,0,0,0-.85-.56,8.08,8.08,0,0,0-1.19-.44c-.45-.13-.91-.27-1.37-.43a12.4,12.4,0,0,1-1.37-.57,4.52,4.52,0,0,1-1.18-.84,3.78,3.78,0,0,1-.84-1.23,4.37,4.37,0,0,1-.32-1.79,4.49,4.49,0,0,1,.37-1.82A4.26,4.26,0,0,1,280.89,92a5.53,5.53,0,0,1,1.87-1,7.78,7.78,0,0,1,2.58-.39,8,8,0,0,1,3,.54,6.51,6.51,0,0,1,2.22,1.41Z"/><path class="cls-1" d="M299.52,83.89V96.58h.69a1.09,1.09,0,0,0,1.06-.53l3.42-4.56a1.77,1.77,0,0,1,.58-.52,1.66,1.66,0,0,1,.82-.18h3.78l-4.44,5.64a4.12,4.12,0,0,1-1.22,1.11,2.87,2.87,0,0,1,.6.55,6.8,6.8,0,0,1,.5.71l4.78,7.45h-3.72a1.88,1.88,0,0,1-.82-.16,1.23,1.23,0,0,1-.57-.56l-3.48-5.68a1.12,1.12,0,0,0-.44-.47,1.65,1.65,0,0,0-.67-.1h-.87v7h-4.14V83.89Z"/><path class="cls-1" d="M328.18,90.79l-8.34,19.62a1.68,1.68,0,0,1-.47.63,1.48,1.48,0,0,1-.88.21h-3.07l2.92-6.24-6.21-14.22h3.63a1.18,1.18,0,0,1,.77.22,1.33,1.33,0,0,1,.39.53l2.94,7.39c.11.29.2.58.29.88l.25.88c.18-.59.38-1.18.61-1.77l2.73-7.38a1.1,1.1,0,0,1,.44-.54,1.22,1.22,0,0,1,.69-.21ZM326,84.25l-3.79,3.93a1.92,1.92,0,0,1-.6.44,1.94,1.94,0,0,1-.75.13h-2.49l2.1-3.66a1.7,1.7,0,0,1,.54-.63,1.87,1.87,0,0,1,1-.21Z"/><path class="cls-1" d="M360.51,106.25h-4.07a4.61,4.61,0,0,1-.56,0,1.64,1.64,0,0,1-.46-.12,1.85,1.85,0,0,1-.4-.24,3.34,3.34,0,0,1-.41-.37l-1.23-1.29a11.21,11.21,0,0,1-6.88,2.29,7.5,7.5,0,0,1-2.51-.44,6.81,6.81,0,0,1-2.19-1.26,6.26,6.26,0,0,1-1.54-2,5.77,5.77,0,0,1-.59-2.62,5.7,5.7,0,0,1,.32-1.9,6,6,0,0,1,.89-1.67,7.76,7.76,0,0,1,1.36-1.39A9.07,9.07,0,0,1,344,94.15,8.59,8.59,0,0,1,342.87,92a7,7,0,0,1-.33-2.09,5.67,5.67,0,0,1,.42-2.17,5.15,5.15,0,0,1,1.21-1.8,5.63,5.63,0,0,1,2-1.22,7.29,7.29,0,0,1,2.65-.45,6.75,6.75,0,0,1,2.46.41,5.55,5.55,0,0,1,1.83,1.1,5.12,5.12,0,0,1,1.17,1.58,5.23,5.23,0,0,1,.52,1.84l-2.64.54a.88.88,0,0,1-1.06-.6,3.32,3.32,0,0,0-.84-1.28,2,2,0,0,0-1.44-.5,2.38,2.38,0,0,0-1,.2,2.13,2.13,0,0,0-.76.55,2.29,2.29,0,0,0-.47.8,3.08,3.08,0,0,0-.15,1,3.59,3.59,0,0,0,.08.81,3,3,0,0,0,.27.78,4.3,4.3,0,0,0,.5.82,11,11,0,0,0,.77.9L353.59,99a9.75,9.75,0,0,0,.74-1.93,11.79,11.79,0,0,0,.36-2.07,1,1,0,0,1,.26-.62.77.77,0,0,1,.59-.22h2.6a13.06,13.06,0,0,1-2.19,7.3Zm-14.69-9.94A4.64,4.64,0,0,0,344.34,98a4.18,4.18,0,0,0-.45,1.9,3.64,3.64,0,0,0,.25,1.4,3.18,3.18,0,0,0,.71,1.07,3,3,0,0,0,1.06.68,3.6,3.6,0,0,0,1.32.24,6.63,6.63,0,0,0,2.17-.34,6.23,6.23,0,0,0,1.82-1Z"/><path class="cls-1" d="M389.31,86.14a2.09,2.09,0,0,1-.12.69,2.24,2.24,0,0,1-.32.66l-10.74,15.24H389v3.52H372.36V104.5a2,2,0,0,1,.1-.63,2,2,0,0,1,.3-.56L383.53,88H373.12V84.49h16.19Z"/><path class="cls-1" d="M397.38,93.34a6.94,6.94,0,0,1,1.69-2.09,3.5,3.5,0,0,1,2.25-.76A2.77,2.77,0,0,1,403,91L402.76,94a.69.69,0,0,1-.23.41.71.71,0,0,1-.43.12,6.1,6.1,0,0,1-.69-.07,5.09,5.09,0,0,0-.84-.07,2.85,2.85,0,0,0-1,.17,2.49,2.49,0,0,0-.79.46,3.25,3.25,0,0,0-.62.74,6.54,6.54,0,0,0-.52,1v9.46h-4.14V90.79h2.45a1.28,1.28,0,0,1,.87.22,1.42,1.42,0,0,1,.34.78Z"/><path class="cls-1" d="M410.74,92.59a9.46,9.46,0,0,1,1-.83,6.36,6.36,0,0,1,1.06-.64A5.85,5.85,0,0,1,414,90.7a6.31,6.31,0,0,1,1.42-.15,5.41,5.41,0,0,1,2.23.43,4.55,4.55,0,0,1,1.64,1.22,5.22,5.22,0,0,1,1,1.86,8.08,8.08,0,0,1,.34,2.37v9.82H416.5V96.43a3.05,3.05,0,0,0-.6-2,2.2,2.2,0,0,0-1.77-.71,3.65,3.65,0,0,0-1.63.38,5.66,5.66,0,0,0-1.46,1v11.11H406.9V90.79h2.55a1,1,0,0,1,1,.72Z"/><path class="cls-1" d="M433,90.55a8.63,8.63,0,0,1,3.16.55,6.76,6.76,0,0,1,4,4.08,10.12,10.12,0,0,1,0,6.64,7.09,7.09,0,0,1-1.57,2.51,6.92,6.92,0,0,1-2.45,1.59,8.63,8.63,0,0,1-3.16.56,8.75,8.75,0,0,1-3.19-.56,6.83,6.83,0,0,1-2.45-1.59,7.28,7.28,0,0,1-1.59-2.51,10.12,10.12,0,0,1,0-6.64,7.23,7.23,0,0,1,1.59-2.5,7,7,0,0,1,2.45-1.58A8.75,8.75,0,0,1,433,90.55Zm0,12.82a3,3,0,0,0,2.62-1.22,8.09,8.09,0,0,0,0-7.26A3,3,0,0,0,433,93.67a3,3,0,0,0-2.67,1.22,8.09,8.09,0,0,0,0,7.26A3,3,0,0,0,433,103.37Z"/><path class="cls-1" d="M459.18,90.79l-6.08,15.46h-3.75l-6.07-15.46h3.43a1.28,1.28,0,0,1,.75.21,1.11,1.11,0,0,1,.42.54l2.6,7.65c.17.52.32,1,.45,1.52s.24,1,.34,1.49c.11-.5.23-1,.37-1.49s.29-1,.47-1.52l2.69-7.65a1,1,0,0,1,.4-.54,1.21,1.21,0,0,1,.71-.21Z"/><path class="cls-1" d="M472.27,94a1.08,1.08,0,0,1-.34.36.8.8,0,0,1-.47.12,1.4,1.4,0,0,1-.61-.15l-.71-.33a9,9,0,0,0-.89-.32,4.15,4.15,0,0,0-1.17-.15,2.61,2.61,0,0,0-1.56.41A1.3,1.3,0,0,0,466,95a1.06,1.06,0,0,0,.31.78,2.84,2.84,0,0,0,.84.55,9.71,9.71,0,0,0,1.17.43l1.36.45a12.46,12.46,0,0,1,1.36.55,4.78,4.78,0,0,1,1.18.79,3.57,3.57,0,0,1,.83,1.14,3.73,3.73,0,0,1,.31,1.61,5.12,5.12,0,0,1-.41,2.08,4.52,4.52,0,0,1-1.21,1.64,5.7,5.7,0,0,1-2,1.08,8.73,8.73,0,0,1-2.73.39,9.16,9.16,0,0,1-1.57-.14,9.48,9.48,0,0,1-2.81-1,5.85,5.85,0,0,1-1.06-.75l1-1.55a1.27,1.27,0,0,1,.41-.42,1.24,1.24,0,0,1,.64-.15,1.28,1.28,0,0,1,.69.19l.7.4a5.86,5.86,0,0,0,.93.41,4.1,4.1,0,0,0,1.32.19,3.54,3.54,0,0,0,1-.14,1.86,1.86,0,0,0,.7-.37,1.3,1.3,0,0,0,.4-.52,1.46,1.46,0,0,0,.13-.61,1.13,1.13,0,0,0-.32-.83,2.93,2.93,0,0,0-.84-.56,8.69,8.69,0,0,0-1.2-.44c-.44-.13-.9-.27-1.37-.43a11.5,11.5,0,0,1-1.36-.57,4.57,4.57,0,0,1-1.19-.84,3.94,3.94,0,0,1-.84-1.23,4.55,4.55,0,0,1-.32-1.79,4.49,4.49,0,0,1,.37-1.82A4.26,4.26,0,0,1,463.54,92a5.53,5.53,0,0,1,1.87-1,7.78,7.78,0,0,1,2.58-.39,7.94,7.94,0,0,1,3,.54,6.51,6.51,0,0,1,2.22,1.41Z"/><path class="cls-1" d="M482.17,83.89V96.58h.69a1.45,1.45,0,0,0,.61-.11,1.58,1.58,0,0,0,.46-.42l3.42-4.56a1.75,1.75,0,0,1,.57-.52,1.69,1.69,0,0,1,.82-.18h3.78l-4.44,5.64a4.12,4.12,0,0,1-1.22,1.11,2.64,2.64,0,0,1,.6.55,6.8,6.8,0,0,1,.5.71l4.78,7.45H489a1.88,1.88,0,0,1-.82-.16,1.23,1.23,0,0,1-.57-.56l-3.48-5.68a1.12,1.12,0,0,0-.44-.47,1.65,1.65,0,0,0-.67-.1h-.87v7H478V83.89Z"/><path class="cls-1" d="M496.15,92.93a9.32,9.32,0,0,1,3-1.84,10.37,10.37,0,0,1,3.57-.6,6.4,6.4,0,0,1,2.47.45,5.22,5.22,0,0,1,1.85,1.25,5.5,5.5,0,0,1,1.16,1.91,7,7,0,0,1,.4,2.43v9.72h-1.89a1.94,1.94,0,0,1-.89-.16,1.24,1.24,0,0,1-.5-.69l-.33-1c-.39.34-.77.64-1.13.9a7.24,7.24,0,0,1-1.14.65,6.09,6.09,0,0,1-1.25.4,7.51,7.51,0,0,1-1.49.13,6.06,6.06,0,0,1-1.86-.27,4.17,4.17,0,0,1-1.45-.8,3.65,3.65,0,0,1-.94-1.33,4.74,4.74,0,0,1-.33-1.83,3.75,3.75,0,0,1,.44-1.71A4.27,4.27,0,0,1,497.34,99a9.58,9.58,0,0,1,2.82-1.16,20.13,20.13,0,0,1,4.42-.51v-.8a3.14,3.14,0,0,0-.62-2.14,2.28,2.28,0,0,0-1.77-.68,4.41,4.41,0,0,0-1.42.2,7.28,7.28,0,0,0-1,.44l-.8.43a1.75,1.75,0,0,1-.87.21,1.24,1.24,0,0,1-.73-.22,2.2,2.2,0,0,1-.49-.52Zm8.43,6.86a18.53,18.53,0,0,0-2.52.26,6,6,0,0,0-1.6.49,2.21,2.21,0,0,0-.84.68,1.53,1.53,0,0,0-.25.83,1.49,1.49,0,0,0,.51,1.28,2.29,2.29,0,0,0,1.4.37,4,4,0,0,0,1.79-.37,5.22,5.22,0,0,0,1.51-1.14Zm3.31-15.54-3.79,3.93a2,2,0,0,1-.59.44,2,2,0,0,1-.76.13h-2.49l2.1-3.66a1.63,1.63,0,0,1,.55-.63,1.81,1.81,0,0,1,1-.21Z"/><rect class="cls-2" x="171.56" width="7.36" height="161.92"/></g></g></svg>