<svg xmlns="http://www.w3.org/2000/svg" viewBox="0 0 164.39 82.79"><defs><style>.cls-1{fill:#f2f2f2;}</style></defs><g id="Vrstva_2" data-name="Vrstva 2"><g id="Vrstva_1-2" data-name="Vrstva 1"><path class="cls-1" d="M44.07,15.3H22.52L0,67.4H17l3.29-7.61h26l3.29,7.61h17ZM25.3,48.23l8-18.5,8,18.5Z"/><polygon class="cls-1" points="61.4 46.56 61.4 0 78.41 0 78.41 26.38 61.4 46.56"/><polygon class="cls-1" points="127.34 82.79 105.43 82.79 95.19 70.62 81.35 54.16 70.19 67.43 66.17 67.43 56.76 59.51 71.3 42.22 75.32 37.45 93.98 15.26 114.07 15.26 92.31 41.13 127.34 82.79"/><polygon class="cls-1" points="133.56 51.87 160.8 51.87 160.8 67.6 120.84 67.6 107.47 51.87 125.1 30.91 107.13 30.9 120.35 15.18 160.61 15.18 160.61 15.22 164.39 15.22 133.56 51.87"/></g></g></svg>